name processed_emg.mot						
datacolumns 7						
datarows 51						
range 24.19 24.69						
endheader						
time	RGLTMED	    RRF	        RADDLONG	 RST	    RTA	        RGM
24.19	0.003681979	0.00509784	0.014453782	0.005021831	0.023574132	0.002693007
24.2	0.003673828	0.005096508	0.014462873	0.004985034	0.02348487	0.002695753
24.21	0.003665152	0.005094585	0.014468329	0.004947387	0.02339391	0.002698438
24.22	0.00365596	0.005092079	0.014470155	0.004908903	0.023301358	0.002701071
24.23	0.003646262	0.005089001	0.014468365	0.0048696	0.023207316	0.00270366
24.24	0.003636069	0.005085361	0.014462974	0.004829494	0.023111888	0.002706212
24.25	0.003625392	0.005081172	0.014454003	0.004788605	0.023015179	0.002708736
24.26	0.003614241	0.005076449	0.014441477	0.004746954	0.022917291	0.002711241
24.27	0.003602629	0.005071205	0.014425424	0.004704565	0.022818328	0.002713736
24.28	0.003590567	0.005065459	0.014405878	0.004661461	0.022718392	0.002716232
24.29	0.003578069	0.005059227	0.014382875	0.004617669	0.022617586	0.002718736
24.3	0.003565147	0.00505253	0.014356457	0.004573217	0.022516012	0.002721261
24.31	0.003551814	0.005045387	0.014326667	0.004528135	0.02241377	0.002723816
24.32	0.003538085	0.00503782	0.014293554	0.004482455	0.022310961	0.002726412
24.33	0.003523972	0.005029853	0.014257169	0.00443621	0.022207683	0.00272906
24.34	0.003509491	0.005021508	0.014217568	0.004389437	0.022104036	0.002731771
24.35	0.003494657	0.005012812	0.014174809	0.004342172	0.022000116	0.002734556
24.36	0.003479484	0.005003788	0.014128953	0.004294456	0.02189602	0.002737427
24.37	0.003463987	0.004994465	0.014080065	0.004246329	0.021791842	0.002740396
24.38	0.003448183	0.00498487	0.014028211	0.004197836	0.021687677	0.002743475
24.39	0.003432086	0.004975032	0.013973461	0.00414902	0.021583615	0.002746676
24.4	0.003415714	0.004964979	0.013915888	0.004099931	0.021479748	0.00275001
24.41	0.003399082	0.004954741	0.013855567	0.004050617	0.021376164	0.002753491
24.42	0.003382208	0.004944348	0.013792573	0.00400113	0.02127295	0.002757131
24.43	0.003365107	0.004933833	0.013726987	0.003951522	0.021170192	0.002760942
24.44	0.003347798	0.004923225	0.013658889	0.00390185	0.021067971	0.002764938
24.45	0.003330296	0.004912557	0.013588361	0.003852169	0.020966368	0.00276913
24.46	0.00331262	0.004901861	0.013515488	0.00380254	0.020865463	0.002773532
24.47	0.003294787	0.004891169	0.013440355	0.003753022	0.020765331	0.002778156
24.48	0.003276815	0.004880514	0.013363049	0.00370368	0.020666044	0.002783015
24.49	0.003258721	0.004869928	0.013283657	0.003654577	0.020567675	0.002788122
24.5	0.003240524	0.004859444	0.01320227	0.003605781	0.020470291	0.002793489
24.51	0.003222241	0.004849095	0.013118976	0.003557358	0.020373956	0.002799129
24.52	0.003203891	0.004838913	0.013033865	0.00350938	0.020278734	0.002805053
24.53	0.003185491	0.00482893	0.012947028	0.003461917	0.020184681	0.002811275
24.54	0.00316706	0.004819178	0.012858557	0.003415043	0.020091855	0.002817807
24.55	0.003148617	0.004809689	0.012768542	0.003368833	0.020000307	0.002824661
24.56	0.003130179	0.004800494	0.012677075	0.003323363	0.019910085	0.002831847
24.57	0.003111766	0.004791625	0.012584247	0.00327871	0.019821234	0.002839379
24.58	0.003093394	0.00478311	0.012490149	0.003234955	0.019733796	0.002847268
24.59	0.003075084	0.00477498	0.012394871	0.003192176	0.019647808	0.002855523
24.6	0.003056852	0.004767263	0.012298504	0.003150456	0.019563303	0.002864158
24.61	0.003038719	0.004759988	0.012201136	0.003109877	0.019480311	0.002873181
24.62	0.003020701	0.004753182	0.012102856	0.003070525	0.019398858	0.002882604
24.63	0.003002817	0.004746871	0.012003751	0.003032482	0.019318964	0.002892435
24.64	0.002985085	0.00474108	0.011903909	0.002995836	0.019240647	0.002902686
24.65	0.002967524	0.004735834	0.011803413	0.002960674	0.019163921	0.002913364
24.66	0.002950152	0.004731155	0.01170235	0.002927082	0.019088793	0.00292448
24.67	0.002932986	0.004727067	0.011600801	0.002895149	0.019015267	0.00293604
24.68	0.002916045	0.00472359	0.011498847	0.002864963	0.018943345	0.002948055
24.69	0.002899346	0.004720743	0.011396569	0.002836615	0.018873022	0.00296053
